<svg width="38" height="46" viewBox="0 0 38 46" fill="none" xmlns="http://www.w3.org/2000/svg">
<path d="M18.9993 25.1673C22.5892 25.1673 25.4993 22.2572 25.4993 18.6673C25.4993 15.0775 22.5892 12.1673 18.9993 12.1673C15.4095 12.1673 12.4993 15.0775 12.4993 18.6673C12.4993 22.2572 15.4095 25.1673 18.9993 25.1673Z" fill="#5BD8FF"/>
<path d="M18.9993 44.6673C27.666 36.0007 36.3327 28.2403 36.3327 18.6673C36.3327 9.09438 28.5723 1.33398 18.9993 1.33398C9.42641 1.33398 1.66602 9.09438 1.66602 18.6673C1.66602 28.2403 10.3327 36.0007 18.9993 44.6673Z" fill="#5BD8FF"/>
<path d="M18.9993 25.1673C22.5892 25.1673 25.4993 22.2572 25.4993 18.6673C25.4993 15.0775 22.5892 12.1673 18.9993 12.1673C15.4095 12.1673 12.4993 15.0775 12.4993 18.6673C12.4993 22.2572 15.4095 25.1673 18.9993 25.1673Z" stroke="white" stroke-width="2" stroke-linecap="round" stroke-linejoin="round"/>
<path d="M18.9993 44.6673C27.666 36.0007 36.3327 28.2403 36.3327 18.6673C36.3327 9.09438 28.5723 1.33398 18.9993 1.33398C9.42641 1.33398 1.66602 9.09438 1.66602 18.6673C1.66602 28.2403 10.3327 36.0007 18.9993 44.6673Z" stroke="white" stroke-width="2" stroke-linecap="round" stroke-linejoin="round"/>
</svg>
